# xmcd CD database file
#
# Track frame offsets:
#	150
#	10917
#	25557
#	46398
#	66548
#	82901
#	95357
#	122033
#	140225
#	159575
#	181723
#	200809
#	221648
#	240959
#	267192
#	289536
#	310957
#	334177
#
# Disc length: 4720 seconds
#
# Revision: 0
# Processed by: cddbd v1.4PL0 Copyright (c) Steve Scherf et al.
# Submitted via: CDex 1.50beta9
#
DISCID=fe126e12
DTITLE=Aretha Franklin - Ultimate Collection
DYEAR=1900
DGENRE=Jazz
TTITLE0=Respect
TTITLE1=Think
TTITLE2=A Deep Love
TTITLE3=A Rose is Still a Rose
TTITLE4=I Say a Little Prayer
TTITLE5=Baby I Love You
TTITLE6=Freeway of Love
TTITLE7=I Knew You Were Waiting (For Me)
TTITLE8=Jump to It
TTITLE9=Sisters Are Doin' it for Themselves with Everyone
TTITLE10=Willing to Forgive
TTITLE11=Doctor's Order
TTITLE12=Get it Right
TTITLE13=Jimmy Lee
TTITLE14=Ever Changing Times
TTITLE15=Who's Zoomin' Who
TTITLE16=You Make me Feel Like a Natural Woman
TTITLE17=Chain of Fools
EXTD=
EXTT0=
EXTT1=
EXTT2=
EXTT3=
EXTT4=
EXTT5=
EXTT6=
EXTT7=
EXTT8=
EXTT9=
EXTT10=
EXTT11=
EXTT12=
EXTT13=
EXTT14=
EXTT15=
EXTT16=
EXTT17=
PLAYORDER=
